# xmcd
#
# Track frame offsets: 
#        150
#        11932
#        25068
#        39193
#        49413
#        63823
#        77679
#        89417
#        100001
#        111085
#        120045
#        132503
#
# Disc length: 2044 seconds
#
# Revision: 0
# Processed by: cddbd v1.5.2PL0 Copyright (c) Steve Scherf et al.
# Submitted via: ExactAudioCopy v0.99pb4
#
DISCID=8d07fa0c
DTITLE=Various Artist - Bose Private Performances: On the Road Again
DYEAR=1900
DGENRE=Country
TTITLE0=Joe Stampley - Roll On Big Mama
TTITLE1=George Strait - Amarillo By Morning
TTITLE2=Crystal Gayle - River Road
TTITLE3=Freddie Weller - Roadmaster
TTITLE4=Ricky skaggs - Highway 40 Blues
TTITLE5=Jacky Ward - Travelin' Man
TTITLE6=Willie Nelson - On the Road Again
TTITLE7=Moe Bandy - Let's Hear It for the Working Man
TTITLE8=Rosanne Cash - That's How I Got to Memphis
TTITLE9=Flatt and Scruggs - Orange Blossom Special
TTITLE10=Glen Campbell - By the Time I Get to Phoenix
TTITLE11=Conway Twitty - Red Neckin' Love Makin' Night
EXTD=
EXTT0=
EXTT1=
EXTT2=
EXTT3=
EXTT4=
EXTT5=
EXTT6=
EXTT7=
EXTT8=
EXTT9=
EXTT10=
EXTT11=
PLAYORDER=
